<svg width="685" height="102" viewBox="0 0 685 102" fill="none" xmlns="http://www.w3.org/2000/svg">
<path d="M0 101.331V85.5874H4.68C5.48 85.5874 6.208 85.6594 6.864 85.8034C7.536 85.9474 8.104 86.1714 8.568 86.4754C9.048 86.7794 9.416 87.1794 9.672 87.6754C9.944 88.1554 10.08 88.7394 10.08 89.4274C10.08 90.2114 9.88 90.9234 9.48001 91.5634C9.09601 92.1874 8.528 92.6194 7.776 92.8594V92.9554C8.736 93.1314 9.51201 93.5314 10.104 94.1554C10.696 94.7794 10.992 95.6354 10.992 96.7234C10.992 97.4914 10.848 98.1634 10.56 98.7394C10.272 99.3154 9.864 99.7954 9.336 100.179C8.808 100.563 8.176 100.851 7.44 101.043C6.704 101.235 5.896 101.331 5.016 101.331H0ZM1.992 92.2834H4.32C5.664 92.2834 6.632 92.0514 7.224 91.5874C7.816 91.1234 8.112 90.4914 8.112 89.6914C8.112 88.7794 7.8 88.1314 7.176 87.7474C6.568 87.3634 5.648 87.1714 4.416 87.1714H1.992V92.2834ZM1.992 99.7474H4.728C6.088 99.7474 7.14401 99.4994 7.89601 99.0034C8.64801 98.4914 9.024 97.7074 9.024 96.6514C9.024 95.6754 8.656 94.9634 7.92 94.5154C7.184 94.0514 6.12 93.8194 4.728 93.8194H1.992V99.7474Z" fill="white" fill-opacity="0.8"/>
<path d="M16.3594 101.331V85.5874H21.2794C22.0794 85.5874 22.8154 85.6674 23.4874 85.8274C24.1754 85.9714 24.7594 86.2194 25.2394 86.5714C25.7354 86.9234 26.1194 87.3794 26.3914 87.9394C26.6634 88.4994 26.7994 89.1874 26.7994 90.0034C26.7994 91.2354 26.4794 92.2194 25.8394 92.9554C25.1994 93.6914 24.3354 94.1954 23.2474 94.4674L27.2554 101.331H24.9994L21.2074 94.6834H18.3514V101.331H16.3594ZM18.3514 93.0514H20.9914C22.2234 93.0514 23.1674 92.8034 23.8234 92.3074C24.4794 91.7954 24.8074 91.0274 24.8074 90.0034C24.8074 88.9634 24.4794 88.2354 23.8234 87.8194C23.1674 87.4034 22.2234 87.1954 20.9914 87.1954H18.3514V93.0514Z" fill="white" fill-opacity="0.8"/>
<path d="M32.25 101.331V85.5874H34.242V101.331H32.25Z" fill="white" fill-opacity="0.8"/>
<path d="M40.8281 101.331V85.5874H44.7641C47.1961 85.5874 49.0441 86.2594 50.3081 87.6034C51.5721 88.9474 52.2041 90.8754 52.2041 93.3874C52.2041 94.6354 52.0441 95.7554 51.7241 96.7474C51.4041 97.7234 50.9321 98.5554 50.3081 99.2434C49.6841 99.9154 48.9161 100.435 48.0041 100.803C47.0921 101.155 46.0441 101.331 44.8601 101.331H40.8281ZM42.8201 99.6994H44.6201C46.4601 99.6994 47.8361 99.1474 48.7481 98.0434C49.6761 96.9394 50.1401 95.3874 50.1401 93.3874C50.1401 91.3874 49.6761 89.8594 48.7481 88.8034C47.8361 87.7474 46.4601 87.2194 44.6201 87.2194H42.8201V99.6994Z" fill="white" fill-opacity="0.8"/>
<path d="M64.0356 101.619C62.9956 101.619 62.0356 101.435 61.1556 101.067C60.2916 100.699 59.5476 100.171 58.9236 99.4833C58.2996 98.7793 57.8116 97.9233 57.4596 96.9153C57.1076 95.8913 56.9316 94.7393 56.9316 93.4593C56.9316 92.1953 57.1076 91.0593 57.4596 90.0513C57.8276 89.0433 58.3316 88.1873 58.9716 87.4833C59.6116 86.7793 60.3716 86.2433 61.2516 85.8753C62.1476 85.4913 63.1156 85.2993 64.1556 85.2993C64.6996 85.2993 65.1956 85.3553 65.6436 85.4673C66.1076 85.5793 66.5236 85.7313 66.8916 85.9233C67.2756 86.0993 67.6116 86.3073 67.8996 86.5473C68.2036 86.7713 68.4676 87.0033 68.6916 87.2433L67.5876 88.5393C67.1876 88.1233 66.7236 87.7713 66.1956 87.4833C65.6676 87.1953 65.0036 87.0513 64.2036 87.0513C63.4036 87.0513 62.6836 87.2033 62.0436 87.5073C61.4036 87.7953 60.8596 88.2193 60.4116 88.7793C59.9636 89.3233 59.6116 89.9873 59.3556 90.7713C59.1156 91.5553 58.9956 92.4353 58.9956 93.4113C58.9956 94.4033 59.1076 95.2993 59.3316 96.0993C59.5716 96.8833 59.9076 97.5553 60.3396 98.1153C60.7876 98.6753 61.3316 99.1073 61.9716 99.4113C62.6276 99.7153 63.3796 99.8673 64.2276 99.8673C64.7876 99.8673 65.3156 99.7873 65.8116 99.6273C66.3236 99.4513 66.7396 99.2193 67.0596 98.9313V94.8273H63.7236V93.1713H68.8836V99.7953C68.3716 100.323 67.6996 100.763 66.8676 101.115C66.0356 101.451 65.0916 101.619 64.0356 101.619Z" fill="white" fill-opacity="0.8"/>
<path d="M74.9062 101.331V85.5874H76.8982V101.331H74.9062Z" fill="white" fill-opacity="0.8"/>
<path d="M83.4844 101.331V85.5874H85.5484L91.2364 95.4754L92.9404 98.7394H93.0364C92.9884 97.9394 92.9324 97.1154 92.8684 96.2674C92.8204 95.4034 92.7964 94.5554 92.7964 93.7234V85.5874H94.6924V101.331H92.6284L86.9164 91.4194L85.2124 88.1794H85.1164C85.1804 88.9794 85.2364 89.7954 85.2844 90.6274C85.3484 91.4434 85.3804 92.2674 85.3804 93.0994V101.331H83.4844Z" fill="white" fill-opacity="0.8"/>
<path d="M107.442 101.619C106.402 101.619 105.442 101.435 104.562 101.067C103.698 100.699 102.954 100.171 102.33 99.4833C101.706 98.7793 101.218 97.9233 100.866 96.9153C100.514 95.8913 100.338 94.7393 100.338 93.4593C100.338 92.1953 100.514 91.0593 100.866 90.0513C101.234 89.0433 101.738 88.1873 102.378 87.4833C103.018 86.7793 103.778 86.2433 104.658 85.8753C105.554 85.4913 106.522 85.2993 107.562 85.2993C108.106 85.2993 108.602 85.3553 109.05 85.4673C109.514 85.5793 109.93 85.7313 110.298 85.9233C110.682 86.0993 111.018 86.3073 111.306 86.5473C111.61 86.7713 111.874 87.0033 112.098 87.2433L110.994 88.5393C110.594 88.1233 110.13 87.7713 109.602 87.4833C109.074 87.1953 108.41 87.0513 107.61 87.0513C106.81 87.0513 106.09 87.2033 105.45 87.5073C104.81 87.7953 104.266 88.2193 103.818 88.7793C103.37 89.3233 103.018 89.9873 102.762 90.7713C102.522 91.5553 102.402 92.4353 102.402 93.4113C102.402 94.4033 102.514 95.2993 102.738 96.0993C102.978 96.8833 103.314 97.5553 103.746 98.1153C104.194 98.6753 104.738 99.1073 105.378 99.4113C106.034 99.7153 106.786 99.8673 107.634 99.8673C108.194 99.8673 108.722 99.7873 109.218 99.6273C109.73 99.4513 110.146 99.2193 110.466 98.9313V94.8273H107.13V93.1713H112.29V99.7953C111.778 100.323 111.106 100.763 110.274 101.115C109.442 101.451 108.498 101.619 107.442 101.619Z" fill="white" fill-opacity="0.8"/>
<path d="M126.358 101.331V87.2674H121.606V85.5874H133.126V87.2674H128.374V101.331H126.358Z" fill="white" fill-opacity="0.8"/>
<path d="M138.188 101.331V85.5874H140.18V92.1874H147.499V85.5874H149.516V101.331H147.499V93.9154H140.18V101.331H138.188Z" fill="white" fill-opacity="0.8"/>
<path d="M156.094 101.331V85.5874H165.166V87.2674H158.086V92.2114H164.062V93.9154H158.086V99.6274H165.406V101.331H156.094Z" fill="white" fill-opacity="0.8"/>
<path d="M181.973 101.619C180.933 101.619 179.973 101.435 179.093 101.067C178.229 100.699 177.485 100.171 176.861 99.4833C176.237 98.7793 175.749 97.9233 175.397 96.9153C175.045 95.8913 174.869 94.7393 174.869 93.4593C174.869 92.1953 175.045 91.0593 175.397 90.0513C175.765 89.0433 176.269 88.1873 176.909 87.4833C177.549 86.7793 178.309 86.2433 179.189 85.8753C180.085 85.4913 181.053 85.2993 182.093 85.2993C182.637 85.2993 183.133 85.3553 183.581 85.4673C184.045 85.5793 184.461 85.7313 184.829 85.9233C185.213 86.0993 185.549 86.3073 185.837 86.5473C186.141 86.7713 186.405 87.0033 186.629 87.2433L185.525 88.5393C185.125 88.1233 184.661 87.7713 184.133 87.4833C183.605 87.1953 182.941 87.0513 182.141 87.0513C181.341 87.0513 180.621 87.2033 179.981 87.5073C179.341 87.7953 178.797 88.2193 178.349 88.7793C177.901 89.3233 177.549 89.9873 177.293 90.7713C177.053 91.5553 176.933 92.4353 176.933 93.4113C176.933 94.4033 177.045 95.2993 177.269 96.0993C177.509 96.8833 177.845 97.5553 178.277 98.1153C178.725 98.6753 179.269 99.1073 179.909 99.4113C180.565 99.7153 181.317 99.8673 182.165 99.8673C182.725 99.8673 183.253 99.7873 183.749 99.6273C184.261 99.4513 184.677 99.2193 184.997 98.9313V94.8273H181.661V93.1713H186.821V99.7953C186.309 100.323 185.637 100.763 184.805 101.115C183.973 101.451 183.029 101.619 181.973 101.619Z" fill="white" fill-opacity="0.8"/>
<path d="M195.462 92.5234L194.718 94.9234H199.446L198.702 92.5234C198.414 91.6434 198.142 90.7714 197.886 89.9074C197.63 89.0274 197.374 88.1314 197.118 87.2194H197.022C196.782 88.1314 196.534 89.0274 196.278 89.9074C196.022 90.7714 195.75 91.6434 195.462 92.5234ZM190.662 101.331L195.99 85.5874H198.246L203.574 101.331H201.438L199.95 96.5314H194.214L192.702 101.331H190.662Z" fill="white" fill-opacity="0.8"/>
<path d="M208.078 101.331V85.5874H212.566C213.446 85.5874 214.246 85.6674 214.966 85.8274C215.702 85.9874 216.326 86.2514 216.838 86.6194C217.35 86.9714 217.75 87.4434 218.038 88.0354C218.326 88.6274 218.47 89.3554 218.47 90.2194C218.47 91.0514 218.326 91.7714 218.038 92.3794C217.766 92.9874 217.374 93.4914 216.862 93.8914C216.35 94.2914 215.734 94.5954 215.014 94.8034C214.31 94.9954 213.526 95.0914 212.662 95.0914H210.07V101.331H208.078ZM210.07 93.4594H212.422C213.798 93.4594 214.814 93.2034 215.47 92.6914C216.142 92.1634 216.478 91.3394 216.478 90.2194C216.478 89.0834 216.126 88.2994 215.422 87.8674C214.734 87.4194 213.702 87.1954 212.326 87.1954H210.07V93.4594Z" fill="white" fill-opacity="0.8"/>
<path d="M228.703 101.331V85.5874H233.383C234.183 85.5874 234.911 85.6594 235.567 85.8034C236.239 85.9474 236.807 86.1714 237.271 86.4754C237.751 86.7794 238.119 87.1794 238.375 87.6754C238.647 88.1554 238.783 88.7394 238.783 89.4274C238.783 90.2114 238.583 90.9234 238.183 91.5634C237.799 92.1874 237.231 92.6194 236.479 92.8594V92.9554C237.439 93.1314 238.215 93.5314 238.807 94.1554C239.399 94.7794 239.695 95.6354 239.695 96.7234C239.695 97.4914 239.551 98.1634 239.263 98.7394C238.975 99.3154 238.567 99.7954 238.039 100.179C237.511 100.563 236.879 100.851 236.143 101.043C235.407 101.235 234.599 101.331 233.719 101.331H228.703ZM230.695 92.2834H233.023C234.367 92.2834 235.335 92.0514 235.927 91.5874C236.519 91.1234 236.815 90.4914 236.815 89.6914C236.815 88.7794 236.503 88.1314 235.879 87.7474C235.271 87.3634 234.351 87.1714 233.119 87.1714H230.695V92.2834ZM230.695 99.7474H233.431C234.791 99.7474 235.847 99.4994 236.599 99.0034C237.351 98.4914 237.727 97.7074 237.727 96.6514C237.727 95.6754 237.359 94.9634 236.623 94.5154C235.887 94.0514 234.823 93.8194 233.431 93.8194H230.695V99.7474Z" fill="white" fill-opacity="0.8"/>
<path d="M245.062 101.331V85.5874H254.135V87.2674H247.055V92.2114H253.03V93.9154H247.055V99.6274H254.374V101.331H245.062Z" fill="white" fill-opacity="0.8"/>
<path d="M263.233 101.331V87.2674H258.481V85.5874H270.001V87.2674H265.249V101.331H263.233Z" fill="white" fill-opacity="0.8"/>
<path d="M276.791 101.331L273.455 85.5874H275.519L277.175 94.1554C277.319 95.0194 277.471 95.8674 277.631 96.6994C277.791 97.5314 277.943 98.3794 278.087 99.2434H278.183C278.359 98.3794 278.543 97.5314 278.735 96.6994C278.927 95.8514 279.111 95.0034 279.287 94.1554L281.471 85.5874H283.295L285.479 94.1554C285.671 94.9874 285.863 95.8274 286.055 96.6754C286.247 97.5234 286.439 98.3794 286.631 99.2434H286.727C286.871 98.3794 287.015 97.5314 287.159 96.6994C287.303 95.8514 287.455 95.0034 287.615 94.1554L289.271 85.5874H291.191L287.927 101.331H285.527L283.151 91.8514C283.007 91.2434 282.871 90.6514 282.743 90.0754C282.631 89.4834 282.511 88.8834 282.383 88.2754H282.287C282.159 88.8834 282.023 89.4834 281.879 90.0754C281.751 90.6514 281.623 91.2434 281.495 91.8514L279.167 101.331H276.791Z" fill="white" fill-opacity="0.8"/>
<path d="M296.156 101.331V85.5874H305.228V87.2674H298.148V92.2114H304.124V93.9154H298.148V99.6274H305.468V101.331H296.156Z" fill="white" fill-opacity="0.8"/>
<path d="M311.062 101.331V85.5874H320.135V87.2674H313.055V92.2114H319.03V93.9154H313.055V99.6274H320.374V101.331H311.062Z" fill="white" fill-opacity="0.8"/>
<path d="M325.969 101.331V85.5874H328.033L333.721 95.4754L335.425 98.7394H335.521C335.473 97.9394 335.417 97.1154 335.353 96.2674C335.305 95.4034 335.281 94.5554 335.281 93.7234V85.5874H337.177V101.331H335.113L329.401 91.4194L327.697 88.1794H327.601C327.665 88.9794 327.721 89.7954 327.769 90.6274C327.833 91.4434 327.865 92.2674 327.865 93.0994V101.331H325.969Z" fill="white" fill-opacity="0.8"/>
<path d="M351.779 101.331V87.2674H347.027V85.5874H358.547V87.2674H353.795V101.331H351.779Z" fill="white" fill-opacity="0.8"/>
<path d="M363.609 101.331V85.5874H372.681V87.2674H365.601V92.2114H371.577V93.9154H365.601V99.6274H372.921V101.331H363.609Z" fill="white" fill-opacity="0.8"/>
<path d="M384.467 101.619C383.475 101.619 382.564 101.435 381.732 101.067C380.9 100.699 380.172 100.171 379.548 99.4833C378.94 98.7793 378.46 97.9233 378.108 96.9153C377.772 95.8913 377.604 94.7393 377.604 93.4593C377.604 92.1953 377.78 91.0593 378.132 90.0513C378.484 89.0433 378.972 88.1873 379.596 87.4833C380.22 86.7793 380.955 86.2433 381.803 85.8753C382.651 85.4913 383.58 85.2993 384.588 85.2993C385.548 85.2993 386.388 85.4993 387.108 85.8993C387.844 86.2833 388.444 86.7313 388.908 87.2433L387.828 88.5393C387.412 88.0913 386.94 87.7313 386.412 87.4593C385.884 87.1873 385.284 87.0513 384.612 87.0513C383.86 87.0513 383.18 87.2033 382.572 87.5073C381.964 87.7953 381.444 88.2193 381.012 88.7793C380.58 89.3233 380.244 89.9873 380.004 90.7713C379.78 91.5553 379.668 92.4353 379.668 93.4113C379.668 94.4033 379.78 95.2993 380.004 96.0993C380.244 96.8833 380.572 97.5553 380.988 98.1153C381.404 98.6753 381.908 99.1073 382.5 99.4113C383.108 99.7153 383.788 99.8673 384.54 99.8673C385.308 99.8673 385.979 99.7153 386.555 99.4113C387.131 99.0913 387.676 98.6513 388.188 98.0913L389.292 99.3393C388.668 100.059 387.964 100.619 387.18 101.019C386.396 101.419 385.491 101.619 384.467 101.619Z" fill="white" fill-opacity="0.8"/>
<path d="M394.453 101.331V85.5874H396.445V92.1874H403.765V85.5874H405.781V101.331H403.765V93.9154H396.445V101.331H394.453Z" fill="white" fill-opacity="0.8"/>
<path d="M412.359 101.331V85.5874H414.423L420.111 95.4754L421.815 98.7394H421.911C421.863 97.9394 421.807 97.1154 421.743 96.2674C421.695 95.4034 421.671 94.5554 421.671 93.7234V85.5874H423.567V101.331H421.503L415.791 91.4194L414.087 88.1794H413.991C414.055 88.9794 414.111 89.7954 414.159 90.6274C414.223 91.4434 414.255 92.2674 414.255 93.0994V101.331H412.359Z" fill="white" fill-opacity="0.8"/>
<path d="M435.933 101.619C434.941 101.619 434.029 101.427 433.197 101.043C432.381 100.659 431.677 100.115 431.085 99.4113C430.493 98.6913 430.029 97.8273 429.693 96.8193C429.373 95.7953 429.213 94.6513 429.213 93.3873C429.213 92.1233 429.373 90.9953 429.693 90.0033C430.029 88.9953 430.493 88.1473 431.085 87.4593C431.677 86.7553 432.381 86.2193 433.197 85.8513C434.029 85.4833 434.941 85.2993 435.933 85.2993C436.925 85.2993 437.829 85.4913 438.645 85.8753C439.477 86.2433 440.189 86.7793 440.781 87.4833C441.389 88.1713 441.853 89.0193 442.173 90.0273C442.509 91.0193 442.677 92.1393 442.677 93.3873C442.677 94.6513 442.509 95.7953 442.173 96.8193C441.853 97.8273 441.389 98.6913 440.781 99.4113C440.189 100.115 439.477 100.659 438.645 101.043C437.829 101.427 436.925 101.619 435.933 101.619ZM435.933 99.8673C436.637 99.8673 437.269 99.7153 437.829 99.4113C438.405 99.1073 438.893 98.6753 439.293 98.1153C439.709 97.5393 440.029 96.8593 440.253 96.0753C440.477 95.2753 440.589 94.3793 440.589 93.3873C440.589 92.4113 440.477 91.5313 440.253 90.7473C440.029 89.9633 439.709 89.2993 439.293 88.7553C438.893 88.2113 438.405 87.7953 437.829 87.5073C437.269 87.2033 436.637 87.0513 435.933 87.0513C435.229 87.0513 434.589 87.2033 434.013 87.5073C433.453 87.7953 432.965 88.2113 432.549 88.7553C432.149 89.2993 431.837 89.9633 431.613 90.7473C431.389 91.5313 431.277 92.4113 431.277 93.3873C431.277 94.3793 431.389 95.2753 431.613 96.0753C431.837 96.8593 432.149 97.5393 432.549 98.1153C432.965 98.6753 433.453 99.1073 434.013 99.4113C434.589 99.7153 435.229 99.8673 435.933 99.8673Z" fill="white" fill-opacity="0.8"/>
<path d="M448.312 101.331V85.5874H450.305V99.6274H457.192V101.331H448.312Z" fill="white" fill-opacity="0.8"/>
<path d="M467.433 101.619C466.441 101.619 465.529 101.427 464.697 101.043C463.881 100.659 463.177 100.115 462.585 99.4113C461.993 98.6913 461.529 97.8273 461.193 96.8193C460.873 95.7953 460.713 94.6513 460.713 93.3873C460.713 92.1233 460.873 90.9953 461.193 90.0033C461.529 88.9953 461.993 88.1473 462.585 87.4593C463.177 86.7553 463.881 86.2193 464.697 85.8513C465.529 85.4833 466.441 85.2993 467.433 85.2993C468.425 85.2993 469.329 85.4913 470.145 85.8753C470.977 86.2433 471.689 86.7793 472.281 87.4833C472.889 88.1713 473.353 89.0193 473.673 90.0273C474.009 91.0193 474.177 92.1393 474.177 93.3873C474.177 94.6513 474.009 95.7953 473.673 96.8193C473.353 97.8273 472.889 98.6913 472.281 99.4113C471.689 100.115 470.977 100.659 470.145 101.043C469.329 101.427 468.425 101.619 467.433 101.619ZM467.433 99.8673C468.137 99.8673 468.769 99.7153 469.329 99.4113C469.905 99.1073 470.393 98.6753 470.793 98.1153C471.209 97.5393 471.529 96.8593 471.753 96.0753C471.977 95.2753 472.089 94.3793 472.089 93.3873C472.089 92.4113 471.977 91.5313 471.753 90.7473C471.529 89.9633 471.209 89.2993 470.793 88.7553C470.393 88.2113 469.905 87.7953 469.329 87.5073C468.769 87.2033 468.137 87.0513 467.433 87.0513C466.729 87.0513 466.089 87.2033 465.513 87.5073C464.953 87.7953 464.465 88.2113 464.049 88.7553C463.649 89.2993 463.337 89.9633 463.113 90.7473C462.889 91.5313 462.777 92.4113 462.777 93.3873C462.777 94.3793 462.889 95.2753 463.113 96.0753C463.337 96.8593 463.649 97.5393 464.049 98.1153C464.465 98.6753 464.953 99.1073 465.513 99.4113C466.089 99.7153 466.729 99.8673 467.433 99.8673Z" fill="white" fill-opacity="0.8"/>
<path d="M486.004 101.619C484.964 101.619 484.004 101.435 483.124 101.067C482.26 100.699 481.516 100.171 480.892 99.4833C480.268 98.7793 479.78 97.9233 479.428 96.9153C479.076 95.8913 478.9 94.7393 478.9 93.4593C478.9 92.1953 479.076 91.0593 479.428 90.0513C479.796 89.0433 480.3 88.1873 480.94 87.4833C481.58 86.7793 482.34 86.2433 483.22 85.8753C484.116 85.4913 485.084 85.2993 486.124 85.2993C486.668 85.2993 487.164 85.3553 487.612 85.4673C488.076 85.5793 488.492 85.7313 488.86 85.9233C489.244 86.0993 489.58 86.3073 489.868 86.5473C490.172 86.7713 490.436 87.0033 490.66 87.2433L489.556 88.5393C489.156 88.1233 488.692 87.7713 488.164 87.4833C487.636 87.1953 486.972 87.0513 486.172 87.0513C485.372 87.0513 484.652 87.2033 484.012 87.5073C483.372 87.7953 482.828 88.2193 482.38 88.7793C481.932 89.3233 481.58 89.9873 481.324 90.7713C481.084 91.5553 480.964 92.4353 480.964 93.4113C480.964 94.4033 481.076 95.2993 481.3 96.0993C481.54 96.8833 481.876 97.5553 482.308 98.1153C482.756 98.6753 483.3 99.1073 483.94 99.4113C484.596 99.7153 485.348 99.8673 486.196 99.8673C486.756 99.8673 487.284 99.7873 487.78 99.6273C488.292 99.4513 488.708 99.2193 489.028 98.9313V94.8273H485.692V93.1713H490.852V99.7953C490.34 100.323 489.668 100.763 488.836 101.115C488.004 101.451 487.06 101.619 486.004 101.619Z" fill="white" fill-opacity="0.8"/>
<path d="M499.419 101.331V95.2354L494.691 85.5874H496.827L498.867 90.0274C499.123 90.6034 499.371 91.1714 499.611 91.7314C499.851 92.2914 500.107 92.8674 500.379 93.4594H500.475C500.747 92.8674 501.019 92.2914 501.291 91.7314C501.563 91.1714 501.819 90.6034 502.059 90.0274L504.075 85.5874H506.163L501.435 95.2354V101.331H499.419Z" fill="white" fill-opacity="0.8"/>
<path d="M518.056 92.5234L517.312 94.9234H522.04L521.296 92.5234C521.008 91.6434 520.736 90.7714 520.48 89.9074C520.224 89.0274 519.968 88.1314 519.712 87.2194H519.616C519.376 88.1314 519.128 89.0274 518.872 89.9074C518.616 90.7714 518.344 91.6434 518.056 92.5234ZM513.256 101.331L518.584 85.5874H520.84L526.168 101.331H524.032L522.544 96.5314H516.808L515.296 101.331H513.256Z" fill="white" fill-opacity="0.8"/>
<path d="M530.672 101.331V85.5874H532.736L538.424 95.4754L540.128 98.7394H540.224C540.176 97.9394 540.12 97.1154 540.056 96.2674C540.008 95.4034 539.984 94.5554 539.984 93.7234V85.5874H541.88V101.331H539.816L534.104 91.4194L532.4 88.1794H532.304C532.368 88.9794 532.424 89.7954 532.472 90.6274C532.536 91.4434 532.568 92.2674 532.568 93.0994V101.331H530.672Z" fill="white" fill-opacity="0.8"/>
<path d="M548.438 101.331V85.5874H552.373C554.805 85.5874 556.654 86.2594 557.918 87.6034C559.182 88.9474 559.813 90.8754 559.813 93.3874C559.813 94.6354 559.654 95.7554 559.334 96.7474C559.014 97.7234 558.542 98.5554 557.918 99.2434C557.294 99.9154 556.525 100.435 555.613 100.803C554.701 101.155 553.653 101.331 552.469 101.331H548.438ZM550.43 99.6994H552.229C554.069 99.6994 555.445 99.1474 556.357 98.0434C557.285 96.9394 557.75 95.3874 557.75 93.3874C557.75 91.3874 557.285 89.8594 556.357 88.8034C555.445 87.7474 554.069 87.2194 552.229 87.2194H550.43V99.6994Z" fill="white" fill-opacity="0.8"/>
<path d="M570.234 101.331V85.5874H574.914C575.714 85.5874 576.442 85.6594 577.098 85.8034C577.77 85.9474 578.338 86.1714 578.802 86.4754C579.282 86.7794 579.65 87.1794 579.906 87.6754C580.178 88.1554 580.314 88.7394 580.314 89.4274C580.314 90.2114 580.114 90.9234 579.714 91.5634C579.33 92.1874 578.762 92.6194 578.01 92.8594V92.9554C578.97 93.1314 579.746 93.5314 580.338 94.1554C580.93 94.7794 581.226 95.6354 581.226 96.7234C581.226 97.4914 581.082 98.1634 580.794 98.7394C580.506 99.3154 580.098 99.7954 579.57 100.179C579.042 100.563 578.41 100.851 577.674 101.043C576.938 101.235 576.13 101.331 575.25 101.331H570.234ZM572.226 92.2834H574.554C575.898 92.2834 576.866 92.0514 577.458 91.5874C578.05 91.1234 578.346 90.4914 578.346 89.6914C578.346 88.7794 578.034 88.1314 577.41 87.7474C576.802 87.3634 575.882 87.1714 574.65 87.1714H572.226V92.2834ZM572.226 99.7474H574.962C576.322 99.7474 577.378 99.4994 578.13 99.0034C578.882 98.4914 579.258 97.7074 579.258 96.6514C579.258 95.6754 578.89 94.9634 578.154 94.5154C577.418 94.0514 576.354 93.8194 574.962 93.8194H572.226V99.7474Z" fill="white" fill-opacity="0.8"/>
<path d="M592.185 101.619C591.385 101.619 590.633 101.507 589.929 101.283C589.241 101.043 588.641 100.659 588.129 100.131C587.633 99.5874 587.241 98.8834 586.953 98.0194C586.665 97.1554 586.521 96.0914 586.521 94.8274V85.5874H588.513V94.8754C588.513 95.8194 588.609 96.6114 588.801 97.2514C588.993 97.8914 589.25 98.4034 589.57 98.7874C589.906 99.1714 590.297 99.4514 590.745 99.6274C591.193 99.7874 591.673 99.8674 592.185 99.8674C592.713 99.8674 593.202 99.7874 593.65 99.6274C594.098 99.4514 594.49 99.1714 594.826 98.7874C595.162 98.4034 595.425 97.8914 595.617 97.2514C595.809 96.6114 595.906 95.8194 595.906 94.8754V85.5874H597.826V94.8274C597.826 96.0914 597.682 97.1554 597.394 98.0194C597.106 98.8834 596.705 99.5874 596.193 100.131C595.697 100.659 595.105 101.043 594.417 101.283C593.729 101.507 592.985 101.619 592.185 101.619Z" fill="white" fill-opacity="0.8"/>
<path d="M608.446 101.619C607.342 101.619 606.318 101.411 605.374 100.995C604.43 100.579 603.614 100.011 602.926 99.2913L604.126 97.8993C604.686 98.4913 605.342 98.9713 606.094 99.3393C606.862 99.6913 607.654 99.8673 608.47 99.8673C609.51 99.8673 610.318 99.6353 610.894 99.1713C611.47 98.6913 611.758 98.0673 611.758 97.2993C611.758 96.8993 611.686 96.5633 611.542 96.2913C611.414 96.0033 611.23 95.7633 610.99 95.5713C610.766 95.3633 610.494 95.1793 610.174 95.0193C609.854 94.8593 609.51 94.6913 609.142 94.5153L606.886 93.5313C606.518 93.3713 606.142 93.1793 605.758 92.9553C605.374 92.7313 605.03 92.4593 604.726 92.1393C604.422 91.8193 604.174 91.4433 603.982 91.0113C603.79 90.5633 603.694 90.0513 603.694 89.4753C603.694 88.8833 603.814 88.3313 604.054 87.8193C604.31 87.3073 604.654 86.8673 605.086 86.4993C605.534 86.1153 606.054 85.8193 606.646 85.6113C607.254 85.4033 607.918 85.2993 608.638 85.2993C609.582 85.2993 610.454 85.4833 611.254 85.8513C612.054 86.2033 612.734 86.6673 613.294 87.2433L612.214 88.5393C611.734 88.0753 611.198 87.7153 610.606 87.4593C610.03 87.1873 609.374 87.0513 608.638 87.0513C607.758 87.0513 607.046 87.2593 606.502 87.6753C605.974 88.0753 605.71 88.6353 605.71 89.3553C605.71 89.7393 605.782 90.0673 605.926 90.3393C606.086 90.5953 606.294 90.8273 606.55 91.0353C606.806 91.2273 607.086 91.4033 607.39 91.5633C607.694 91.7073 608.006 91.8433 608.326 91.9713L610.558 92.9313C611.006 93.1233 611.43 93.3473 611.83 93.6033C612.23 93.8433 612.574 94.1313 612.862 94.4673C613.15 94.7873 613.374 95.1713 613.534 95.6193C613.71 96.0513 613.798 96.5553 613.798 97.1313C613.798 97.7553 613.67 98.3393 613.414 98.8833C613.174 99.4273 612.822 99.9073 612.358 100.323C611.894 100.723 611.334 101.043 610.678 101.283C610.022 101.507 609.278 101.619 608.446 101.619Z" fill="white" fill-opacity="0.8"/>
<path d="M619.125 101.331V85.5874H621.117V101.331H619.125Z" fill="white" fill-opacity="0.8"/>
<path d="M627.703 101.331V85.5874H629.767L635.455 95.4754L637.159 98.7394H637.255C637.207 97.9394 637.151 97.1154 637.087 96.2674C637.039 95.4034 637.015 94.5554 637.015 93.7234V85.5874H638.911V101.331H636.847L631.135 91.4194L629.431 88.1794H629.335C629.399 88.9794 629.455 89.7954 629.503 90.6274C629.567 91.4434 629.599 92.2674 629.599 93.0994V101.331H627.703Z" fill="white" fill-opacity="0.8"/>
<path d="M645.469 101.331V85.5874H654.541V87.2674H647.461V92.2114H653.437V93.9154H647.461V99.6274H654.781V101.331H645.469Z" fill="white" fill-opacity="0.8"/>
<path d="M664.743 101.619C663.639 101.619 662.615 101.411 661.671 100.995C660.727 100.579 659.911 100.011 659.223 99.2913L660.423 97.8993C660.983 98.4913 661.639 98.9713 662.391 99.3393C663.159 99.6913 663.951 99.8673 664.767 99.8673C665.807 99.8673 666.615 99.6353 667.191 99.1713C667.767 98.6913 668.055 98.0673 668.055 97.2993C668.055 96.8993 667.983 96.5633 667.839 96.2913C667.711 96.0033 667.527 95.7633 667.287 95.5713C667.063 95.3633 666.791 95.1793 666.471 95.0193C666.151 94.8593 665.807 94.6913 665.439 94.5153L663.183 93.5313C662.815 93.3713 662.439 93.1793 662.055 92.9553C661.671 92.7313 661.327 92.4593 661.023 92.1393C660.719 91.8193 660.471 91.4433 660.279 91.0113C660.087 90.5633 659.991 90.0513 659.991 89.4753C659.991 88.8833 660.111 88.3313 660.351 87.8193C660.607 87.3073 660.951 86.8673 661.383 86.4993C661.831 86.1153 662.351 85.8193 662.943 85.6113C663.551 85.4033 664.215 85.2993 664.935 85.2993C665.879 85.2993 666.751 85.4833 667.551 85.8513C668.351 86.2033 669.031 86.6673 669.591 87.2433L668.511 88.5393C668.031 88.0753 667.495 87.7153 666.903 87.4593C666.327 87.1873 665.671 87.0513 664.935 87.0513C664.055 87.0513 663.343 87.2593 662.799 87.6753C662.271 88.0753 662.007 88.6353 662.007 89.3553C662.007 89.7393 662.079 90.0673 662.223 90.3393C662.383 90.5953 662.591 90.8273 662.847 91.0353C663.103 91.2273 663.383 91.4033 663.687 91.5633C663.991 91.7073 664.303 91.8433 664.623 91.9713L666.855 92.9313C667.303 93.1233 667.727 93.3473 668.127 93.6033C668.527 93.8433 668.871 94.1313 669.159 94.4673C669.447 94.7873 669.671 95.1713 669.831 95.6193C670.007 96.0513 670.095 96.5553 670.095 97.1313C670.095 97.7553 669.967 98.3393 669.711 98.8833C669.471 99.4273 669.119 99.9073 668.655 100.323C668.191 100.723 667.631 101.043 666.975 101.283C666.319 101.507 665.575 101.619 664.743 101.619Z" fill="white" fill-opacity="0.8"/>
<path d="M679.462 101.619C678.358 101.619 677.334 101.411 676.39 100.995C675.446 100.579 674.63 100.011 673.942 99.2913L675.142 97.8993C675.702 98.4913 676.358 98.9713 677.11 99.3393C677.878 99.6913 678.67 99.8673 679.486 99.8673C680.526 99.8673 681.334 99.6353 681.91 99.1713C682.486 98.6913 682.774 98.0673 682.774 97.2993C682.774 96.8993 682.702 96.5633 682.558 96.2913C682.43 96.0033 682.246 95.7633 682.006 95.5713C681.782 95.3633 681.51 95.1793 681.19 95.0193C680.87 94.8593 680.526 94.6913 680.158 94.5153L677.902 93.5313C677.534 93.3713 677.158 93.1793 676.774 92.9553C676.39 92.7313 676.046 92.4593 675.742 92.1393C675.438 91.8193 675.19 91.4433 674.998 91.0113C674.806 90.5633 674.71 90.0513 674.71 89.4753C674.71 88.8833 674.83 88.3313 675.07 87.8193C675.326 87.3073 675.67 86.8673 676.102 86.4993C676.55 86.1153 677.07 85.8193 677.662 85.6113C678.27 85.4033 678.934 85.2993 679.654 85.2993C680.598 85.2993 681.47 85.4833 682.27 85.8513C683.07 86.2033 683.75 86.6673 684.31 87.2433L683.23 88.5393C682.75 88.0753 682.214 87.7153 681.622 87.4593C681.046 87.1873 680.39 87.0513 679.654 87.0513C678.774 87.0513 678.062 87.2593 677.518 87.6753C676.99 88.0753 676.726 88.6353 676.726 89.3553C676.726 89.7393 676.798 90.0673 676.942 90.3393C677.102 90.5953 677.31 90.8273 677.566 91.0353C677.822 91.2273 678.102 91.4033 678.406 91.5633C678.71 91.7073 679.022 91.8433 679.342 91.9713L681.574 92.9313C682.022 93.1233 682.446 93.3473 682.846 93.6033C683.246 93.8433 683.59 94.1313 683.878 94.4673C684.166 94.7873 684.39 95.1713 684.55 95.6193C684.726 96.0513 684.814 96.5553 684.814 97.1313C684.814 97.7553 684.686 98.3393 684.43 98.8833C684.19 99.4273 683.838 99.9073 683.374 100.323C682.91 100.723 682.35 101.043 681.694 101.283C681.038 101.507 680.294 101.619 679.462 101.619Z" fill="white" fill-opacity="0.8"/>
<path d="M84.8083 55.2227C89.4437 57.7002 94.7184 58.899 100.632 58.899C105.747 58.899 110.303 58.0199 114.459 56.1818C118.535 54.4235 121.971 51.7862 124.688 48.3496L114.618 39.2387C110.942 43.6343 106.547 45.7922 101.432 45.7922C98.3947 45.7922 95.6775 45.1528 93.2799 43.7942C90.8822 42.5154 89.0441 40.5974 87.7654 38.1998C86.4866 35.8022 85.8473 33.005 85.8473 29.8082C85.8473 26.6913 86.4866 23.8941 87.7654 21.4965C89.0441 19.0989 90.8822 17.1808 93.2799 15.8222C95.6775 14.5434 98.3947 13.8242 101.432 13.8242C106.547 13.8242 110.942 16.0619 114.618 20.3776L124.688 11.2667C121.971 7.91009 118.535 5.27273 114.459 3.43457C110.303 1.67633 105.747 0.717285 100.632 0.717285C94.7184 0.717285 89.4437 1.99601 84.8083 4.47353C80.1729 6.95105 76.4966 10.3876 73.8593 14.7832C71.142 19.2587 69.8633 24.2138 69.8633 29.8082C69.8633 35.4026 71.142 40.4375 73.8593 44.8331C76.4966 49.3087 80.1729 52.7452 84.8083 55.2227Z" fill="#4169E1"/>
<path d="M149.793 55.1428C154.509 57.7002 159.863 58.899 165.777 58.899C171.691 58.899 176.966 57.7002 181.681 55.1428C186.397 52.6653 190.073 49.2287 192.79 44.7532C195.508 40.3576 196.866 35.4026 196.866 29.8082C196.866 24.2937 195.508 19.3386 192.79 14.8631C190.073 10.4675 186.397 7.03097 181.681 4.47353C176.966 1.99601 171.691 0.717285 165.777 0.717285C159.863 0.717285 154.509 1.99601 149.793 4.47353C145.078 7.03097 141.402 10.4675 138.684 14.8631C135.967 19.3386 134.688 24.2937 134.688 29.8082C134.688 35.4026 135.967 40.3576 138.684 44.7532C141.402 49.2287 145.078 52.6653 149.793 55.1428ZM173.45 43.7942C171.132 45.1528 168.575 45.7922 165.777 45.7922C162.9 45.7922 160.343 45.1528 158.105 43.7942C155.787 42.5154 153.949 40.5974 152.67 38.1998C151.312 35.8022 150.672 33.005 150.672 29.8082C150.672 26.6913 151.312 23.8941 152.67 21.4965C153.949 19.0989 155.787 17.1808 158.105 15.8222C160.343 14.5434 162.9 13.8242 165.777 13.8242C168.575 13.8242 171.132 14.5434 173.45 15.8222C175.687 17.1808 177.526 19.0989 178.884 21.4965C180.163 23.8941 180.882 26.6913 180.882 29.8082C180.882 33.005 180.163 35.8022 178.884 38.1998C177.526 40.5974 175.687 42.5154 173.45 43.7942Z" fill="#4169E1"/>
<path d="M260.652 15.0227C258.015 10.8669 254.339 7.59018 249.623 5.2725C244.828 3.03474 239.394 1.83594 233.32 1.83594H206.866V14.4633H232.68C237.476 14.4633 241.312 15.8219 244.189 18.5392C247.066 21.3364 248.584 25.0927 248.584 29.8079C248.584 34.6031 247.066 38.3594 244.189 41.0767C241.312 43.7939 237.476 45.1526 232.68 45.1526H222.69V30.2875H206.866V57.7799H233.32C239.394 57.7799 244.828 56.6611 249.623 54.3434C254.339 52.1056 258.015 48.8289 260.652 44.5931C263.21 40.4373 264.568 35.4823 264.568 29.8079C264.568 24.2135 263.21 19.2585 260.652 15.0227Z" fill="#4169E1"/>
<path d="M318.924 57.7803H274.568V45.5525V36.122L290.079 45.5525H318.924V57.7803ZM318.924 36.122H290.079V45.5525L274.568 36.122V24.2938V14.064L290.079 24.2938H304.502H318.924V36.122ZM274.568 14.064V1.83627H318.924V14.064H304.502H290.079V24.2938L274.568 14.064Z" fill="#4169E1"/>
<path fill-rule="evenodd" clip-rule="evenodd" d="M367.713 13.0125L341.935 57.6622L341.692 57.5218L341.854 57.8024H328.924L361.248 1.81494L367.713 13.0125Z" fill="#4169E1"/>
<path fill-rule="evenodd" clip-rule="evenodd" d="M354.783 13.012L380.562 57.6617L380.805 57.5213L380.643 57.8019H393.573L361.248 1.81445L354.783 13.012Z" fill="#4169E1"/>
<path fill-rule="evenodd" clip-rule="evenodd" d="M393.572 1.81445L393.552 24.2093L374.118 13.0119L393.572 1.81445Z" fill="#4169E1"/>
<path fill-rule="evenodd" clip-rule="evenodd" d="M382.891 11.3994L392.274 13.0124L366.415 57.8023H363.818C366.445 57.8023 366.415 57.8023 366.415 57.8023H356.081L382.874 11.3955L356.081 57.8023L382.891 11.3994ZM392.274 13.0124L382.874 11.3955L392.274 13.0124Z" fill="#4169E1"/>
<path d="M420.756 14.3834V57.7799H436.58V14.3834H453.683V1.83594H403.573V14.3834H420.756Z" fill="#4169E1"/>
<path d="M463.683 1.83594V57.7799H479.507V1.83594H463.683Z" fill="#4169E1"/>
<path d="M504.612 55.1428C509.327 57.7002 514.682 58.899 520.596 58.899C526.51 58.899 531.785 57.7002 536.5 55.1428C541.215 52.6653 544.891 49.2287 547.609 44.7532C550.326 40.3576 551.685 35.4026 551.685 29.8082C551.685 24.2937 550.326 19.3386 547.609 14.8631C544.891 10.4675 541.215 7.03097 536.5 4.47353C531.785 1.99601 526.51 0.717285 520.596 0.717285C514.682 0.717285 509.327 1.99601 504.612 4.47353C499.896 7.03097 496.22 10.4675 493.503 14.8631C490.786 19.3386 489.507 24.2937 489.507 29.8082C489.507 35.4026 490.786 40.3576 493.503 44.7532C496.22 49.2287 499.896 52.6653 504.612 55.1428ZM528.268 43.7942C525.95 45.1528 523.393 45.7922 520.596 45.7922C517.719 45.7922 515.161 45.1528 512.923 43.7942C510.606 42.5154 508.768 40.5974 507.489 38.1998C506.13 35.8022 505.491 33.005 505.491 29.8082C505.491 26.6913 506.13 23.8941 507.489 21.4965C508.768 19.0989 510.606 17.1808 512.923 15.8222C515.161 14.5434 517.719 13.8242 520.596 13.8242C523.393 13.8242 525.95 14.5434 528.268 15.8222C530.506 17.1808 532.344 19.0989 533.703 21.4965C534.981 23.8941 535.701 26.6913 535.701 29.8082C535.701 33.005 534.981 35.8022 533.703 38.1998C532.344 40.5974 530.506 42.5154 528.268 43.7942Z" fill="#4169E1"/>
<path d="M561.685 57.7799H577.189V27.9698L601.884 57.7799H614.911V1.83594H599.407V31.5662V31.6461L574.712 1.83594H561.685V57.7799Z" fill="#4169E1"/>
</svg>
